<?xml version="1.0" encoding="UTF-8" standalone="no"?>
<!-- Created with Inkscape (http://www.inkscape.org/) -->

<svg
   version="1.1"
   id="svg1"
   width="340"
   height="189"
   viewBox="391.18 302.37 340 189"
   sodipodi:docname="dgi_logo_cmyk_sort.ai"
   xmlns:inkscape="http://www.inkscape.org/namespaces/inkscape"
   xmlns:sodipodi="http://sodipodi.sourceforge.net/DTD/sodipodi-0.dtd"
   xmlns="http://www.w3.org/2000/svg"
   xmlns:svg="http://www.w3.org/2000/svg">
  <defs
     id="defs1">
    <clipPath
       clipPathUnits="userSpaceOnUse"
       id="clipPath3">
      <path
         d="M 0,595.28 H 841.89 V 0 H 0 Z"
         transform="translate(-378.28761,-297.64211)"
         id="path3" />
    </clipPath>
  </defs>
  <sodipodi:namedview
     id="namedview1"
     pagecolor="#ffffff"
     bordercolor="#000000"
     borderopacity="0.25"
     inkscape:showpageshadow="2"
     inkscape:pageopacity="0.0"
     inkscape:pagecheckerboard="0"
     inkscape:deskcolor="#d1d1d1">
    <inkscape:page
       x="0"
       y="0"
       inkscape:label="1"
       id="page1"
       width="1122.52"
       height="793.70667"
       margin="302.36801 391.18134 302.36267"
       bleed="0" />
  </sodipodi:namedview>
  <g
     id="g1"
     inkscape:groupmode="layer"
     inkscape:label="1">
    <g
       id="group-MC0">
      <path
         id="path2"
         d="m 0,0 c -1.928,-9.92 -9.379,-16.266 -20.29,-16.266 h -9.174 l 6.346,32.648 h 9.174 C -3.034,16.382 1.953,10.037 0,0 m 128.012,-35.417 h -25.025 l 13.79,70.941 h 25.025 z m -40.691,46.53 c 0,0 -11.393,4.694 -22.918,4.694 -14.466,0 -21.182,-6.456 -23.066,-16.152 -1.934,-9.941 2.276,-16.266 15.368,-16.266 1.073,0 2.283,0.064 3.473,0.185 L 63.43,0.292 85.218,0.297 79.145,-30.958 c -8.26,-3.795 -19.557,-5.608 -28.607,-5.608 -20.258,0 -29.491,7.497 -33.269,19.834 C 9.125,-28.448 -4.86,-35.417 -22.748,-35.417 h -34.55 l 13.768,70.835 h 34.55 c 18.02,0 29.329,-7.073 32.834,-18.942 9.185,13.057 22.968,20.092 44.586,20.092 8.257,0 17.626,-1.961 22.873,-4.928 z M -84.902,-70.866 H 170.216 V 70.866 H -84.902 Z"
         style="fill:#231f20;fill-opacity:1;fill-rule:nonzero;stroke:none"
         transform="matrix(1.3333333,0,0,-1.3333333,504.38347,396.85053)"
         clip-path="url(#clipPath3)" />
    </g>
  </g>
</svg>
