<?xml version="1.0" encoding="UTF-8" standalone="no"?>
<!-- Created with Inkscape (http://www.inkscape.org/) -->

<svg
   version="1.1"
   id="svg1"
   width="340"
   height="189"
   viewBox="32.79 35.70 340 189"
   sodipodi:docname="dgi_logo_cmyk_hvid.ai"
   xmlns:inkscape="http://www.inkscape.org/namespaces/inkscape"
   xmlns:sodipodi="http://sodipodi.sourceforge.net/DTD/sodipodi-0.dtd"
   xmlns="http://www.w3.org/2000/svg"
   xmlns:svg="http://www.w3.org/2000/svg">
  <defs
     id="defs1">
    <clipPath
       clipPathUnits="userSpaceOnUse"
       id="clipPath3">
      <path
         d="M 0,197.191 H 310.042 V 0 H 0 Z"
         transform="translate(-109.4976,-97.642302)"
         id="path3" />
    </clipPath>
  </defs>
  <sodipodi:namedview
     id="namedview1"
     pagecolor="#ffffff"
     bordercolor="#000000"
     borderopacity="0.25"
     inkscape:showpageshadow="2"
     inkscape:pageopacity="0.0"
     inkscape:pagecheckerboard="0"
     inkscape:deskcolor="#d1d1d1">
    <inkscape:page
       x="0"
       y="0"
       inkscape:label="1"
       id="page1"
       width="413.38934"
       height="262.92133"
       margin="35.701866 40.437332 38.243999 32.794533"
       bleed="0" />
  </sodipodi:namedview>
  <g
     id="g1"
     inkscape:groupmode="layer"
     inkscape:label="1">
    <g
       id="group-MC0">
      <path
         id="path2"
         d="m 0,0 c -1.928,-9.921 -9.379,-16.267 -20.29,-16.267 h -9.174 l 6.346,32.649 h 9.175 C -3.034,16.382 1.953,10.037 0,0 m 128.012,-35.418 h -25.025 l 13.79,70.942 h 25.025 z M 87.321,11.113 c 0,0 -11.393,4.694 -22.918,4.694 -14.466,0 -21.181,-6.456 -23.066,-16.152 -1.934,-9.941 2.277,-16.266 15.368,-16.266 1.073,0 2.283,0.063 3.473,0.184 L 63.43,0.292 85.218,0.297 79.145,-30.959 c -8.26,-3.795 -19.557,-5.607 -28.607,-5.607 -20.257,0 -29.49,7.497 -33.269,19.834 C 9.125,-28.448 -4.86,-35.418 -22.748,-35.418 h -34.55 l 13.768,70.836 h 34.55 c 18.02,0 29.329,-7.073 32.834,-18.942 9.186,13.057 22.968,20.092 44.586,20.092 8.257,0 17.626,-1.961 22.873,-4.928 z M -84.902,-70.866 H 170.216 V 70.866 H -84.902 Z"
         style="fill:#ffffff;fill-opacity:1;fill-rule:nonzero;stroke:none"
         transform="matrix(1.3333333,0,0,-1.3333333,145.9968,132.7316)"
         clip-path="url(#clipPath3)" />
    </g>
  </g>
</svg>
